<svg width="535" height="443" viewBox="0 0 535 443" fill="none" xmlns="http://www.w3.org/2000/svg">
<circle cx="271" cy="236" r="206.25" stroke="#4A4A4A" stroke-width="1.5"/>
<circle cx="271.5" cy="235.5" r="166.75" stroke="#4A4A4A" stroke-width="1.5"/>
<circle cx="271" cy="228" r="120.25" stroke="#4A4A4A" stroke-width="1.5"/>
<circle cx="118.695" cy="384.695" r="46.6954" fill="white"/>
<rect x="96" y="362" width="45.4333" height="45.4333" rx="5.04815" fill="#FCC419"/>
<path d="M111 381C113.615 387.037 120.677 395.489 128 381" stroke="white" stroke-width="3.52" stroke-linecap="round"/>
<circle cx="64.3639" cy="209.364" r="64.3639" fill="#D0EAA0"/>
<path d="M51.7437 196.743C54.2677 187.488 61.0827 173.522 68.1501 191.695" stroke="#95BF47" stroke-width="2.52407"/>
<path d="M55.5298 196.761C58.0539 187.507 64.8689 173.54 71.9363 191.713" stroke="#95BF47" stroke-width="2.52407"/>
<path d="M89.3996 190.543C87.3334 192.651 80.7903 189.666 77.7771 187.91L80.7708 248.487C85.9363 245.327 94.5651 243.659 98.4393 243.22L89.3996 190.543Z" fill="#5E8E3E"/>
<path d="M35.3369 239.465L43.3546 195.643L78.0977 187.91L80.7702 248.487L35.3369 239.465Z" fill="#95BF47"/>
<path d="M58.4535 223.426C58.4535 223.012 58.35 222.638 58.1429 222.305C57.9359 221.96 57.539 221.649 56.9524 221.373C56.3772 221.097 55.526 220.844 54.3987 220.614C53.4095 220.395 52.5007 220.137 51.6725 219.837C50.8558 219.527 50.1541 219.153 49.5675 218.716C48.9808 218.279 48.5265 217.761 48.2044 217.163C47.8823 216.565 47.7212 215.875 47.7212 215.093C47.7212 214.333 47.888 213.614 48.2216 212.936C48.5552 212.257 49.0326 211.659 49.6537 211.141C50.2749 210.624 51.0283 210.215 51.9141 209.916C52.8113 209.617 53.8121 209.468 54.9163 209.468C56.4807 209.468 57.8208 209.732 58.9366 210.261C60.0639 210.779 60.9266 211.486 61.5248 212.384C62.1229 213.269 62.422 214.27 62.422 215.386H58.2637C58.2637 214.891 58.1372 214.431 57.8841 214.005C57.6425 213.568 57.2744 213.218 56.7798 212.953C56.2852 212.677 55.664 212.539 54.9163 212.539C54.2032 212.539 53.6108 212.654 53.1391 212.884C52.679 213.103 52.3339 213.39 52.1039 213.747C51.8853 214.103 51.776 214.494 51.776 214.92C51.776 215.231 51.8336 215.512 51.9486 215.765C52.0751 216.007 52.2822 216.231 52.5697 216.438C52.8573 216.634 53.2484 216.818 53.743 216.99C54.2492 217.163 54.8818 217.33 55.641 217.491C57.0674 217.79 58.2925 218.175 59.3162 218.647C60.3515 219.107 61.1452 219.705 61.6973 220.441C62.2495 221.166 62.5255 222.086 62.5255 223.202C62.5255 224.03 62.3472 224.789 61.9906 225.48C61.6456 226.158 61.1394 226.751 60.4723 227.257C59.8051 227.751 59.0056 228.137 58.0739 228.413C57.1537 228.689 56.1184 228.827 54.9681 228.827C53.2772 228.827 51.8451 228.528 50.6718 227.93C49.4985 227.32 48.607 226.544 47.9973 225.6C47.3992 224.646 47.1001 223.656 47.1001 222.633H51.1204C51.1664 223.403 51.3792 224.019 51.7588 224.479C52.1499 224.928 52.633 225.255 53.2082 225.462C53.7948 225.658 54.3987 225.756 55.0199 225.756C55.7676 225.756 56.3945 225.658 56.9006 225.462C57.4067 225.255 57.7921 224.979 58.0566 224.634C58.3212 224.278 58.4535 223.875 58.4535 223.426Z" fill="white"/>
<circle cx="235" cy="45" r="45" fill="#ADFFE5"/>
<path d="M224.998 49.5511C224.998 50.2679 224.785 50.9686 224.387 51.5646C223.989 52.1606 223.423 52.6251 222.76 52.8993C222.098 53.1736 221.369 53.2453 220.666 53.1053C219.963 52.9654 219.318 52.6201 218.811 52.1131C218.304 51.6062 217.959 50.9603 217.819 50.2572C217.68 49.5542 217.752 48.8255 218.026 48.1633C218.301 47.5011 218.765 46.9353 219.362 46.5372C219.958 46.1392 220.659 45.9269 221.375 45.9272H224.998V49.5511ZM226.824 49.5511C226.824 48.5898 227.205 47.6679 227.885 46.9881C228.565 46.3084 229.487 45.9265 230.448 45.9265C231.409 45.9265 232.331 46.3084 233.011 46.9881C233.691 47.6679 234.073 48.5898 234.073 49.5511V58.6261C234.073 59.5872 233.691 60.509 233.011 61.1886C232.332 61.8682 231.41 62.25 230.449 62.25C229.488 62.25 228.566 61.8682 227.886 61.1886C227.207 60.509 226.825 59.5872 226.825 58.6261L226.824 49.5511ZM230.449 34.9979C229.732 34.9979 229.031 34.7853 228.435 34.387C227.839 33.9888 227.375 33.4227 227.101 32.7604C226.826 32.0982 226.755 31.3694 226.895 30.6664C227.035 29.9634 227.38 29.3177 227.887 28.8109C228.394 28.3042 229.04 27.9591 229.743 27.8195C230.446 27.6798 231.175 27.7518 231.837 28.0263C232.499 28.3008 233.065 28.7655 233.463 29.3616C233.861 29.9578 234.073 30.6586 234.073 31.3754V34.9979H230.449ZM230.449 36.8235C231.41 36.8235 232.332 37.2054 233.012 37.8851C233.692 38.5649 234.074 39.4868 234.074 40.4482C234.074 41.4095 233.692 42.3314 233.012 43.0112C232.332 43.6909 231.41 44.0728 230.449 44.0728H221.373C220.411 44.0728 219.49 43.691 218.81 43.0114C218.13 42.3318 217.749 41.41 217.749 40.4489C217.749 39.4878 218.13 38.566 218.81 37.8864C219.49 37.2067 220.411 36.8249 221.373 36.8249L230.449 36.8235ZM245.002 40.4489C245.002 39.7321 245.215 39.0314 245.613 38.4354C246.011 37.8394 246.577 37.3749 247.24 37.1007C247.902 36.8264 248.631 36.7547 249.334 36.8947C250.037 37.0346 250.682 37.3799 251.189 37.8869C251.696 38.3938 252.041 39.0397 252.181 39.7428C252.32 40.4458 252.248 41.1745 251.974 41.8367C251.699 42.4989 251.235 43.0647 250.638 43.4628C250.042 43.8608 249.341 44.0731 248.625 44.0728H245.002V40.4489ZM243.177 40.4489C243.177 41.4102 242.795 42.3321 242.115 43.0119C241.435 43.6917 240.513 44.0735 239.552 44.0735C238.591 44.0735 237.669 43.6917 236.989 43.0119C236.309 42.3321 235.927 41.4102 235.927 40.4489V31.3725C235.927 30.4114 236.309 29.4896 236.989 28.81C237.668 28.1304 238.59 27.7486 239.551 27.7486C240.512 27.7486 241.434 28.1304 242.114 28.81C242.793 29.4896 243.175 30.4114 243.175 31.3725L243.177 40.4489ZM239.551 55.0021C240.268 55.0021 240.969 55.2147 241.565 55.613C242.161 56.0112 242.625 56.5773 242.899 57.2396C243.174 57.9019 243.245 58.6306 243.105 59.3336C242.965 60.0366 242.62 60.6823 242.113 61.1891C241.606 61.6958 240.96 62.0409 240.257 62.1805C239.554 62.3202 238.825 62.2482 238.163 61.9737C237.501 61.6992 236.935 61.2345 236.537 60.6384C236.139 60.0422 235.927 59.3414 235.927 58.6246V55.0021H239.551ZM239.551 53.1765C238.59 53.1765 237.668 52.7946 236.988 52.1149C236.308 51.4351 235.926 50.5132 235.926 49.5518C235.926 48.5905 236.308 47.6686 236.988 46.9888C237.668 46.3091 238.59 45.9272 239.551 45.9272H248.626C249.587 45.9272 250.509 46.309 251.189 46.9886C251.868 47.6682 252.25 48.59 252.25 49.5511C252.25 50.5123 251.868 51.434 251.189 52.1136C250.509 52.7933 249.587 53.1751 248.626 53.1751L239.551 53.1765Z" fill="#00AE78"/>
<circle cx="434.888" cy="375.888" r="66.888" fill="#CED8FF"/>
<path fill-rule="evenodd" clip-rule="evenodd" d="M467.438 372.726C467.438 360.914 453.139 351.337 435.5 351.337C417.861 351.337 403.562 360.914 403.562 372.726C403.562 383.254 414.925 391.984 429.879 393.766V400.589L440.774 400.587V393.802C443.355 393.522 445.906 393.014 448.398 392.285L452.822 400.594L465.133 400.589L457.715 388.077C463.703 384.189 467.438 378.753 467.438 372.726ZM416.114 374.323C416.114 366.247 426.982 359.7 440.389 359.7C453.796 359.7 463.689 364.178 463.689 374.323C463.718 376.824 462.995 379.277 461.613 381.362C460.23 383.447 458.253 385.069 455.938 386.017C455.718 385.871 455.491 385.738 455.258 385.617C454.266 385.164 453.245 384.779 452.201 384.465C452.201 384.465 461.723 383.758 461.723 374.277C461.723 364.796 451.758 364.618 451.758 364.618H429.881V387.488C421.744 385.127 416.114 380.126 416.114 374.323ZM447.463 378.532L440.863 378.534L440.865 372.42H447.463C447.867 372.39 448.274 372.446 448.655 372.585C449.036 372.725 449.383 372.944 449.672 373.228C449.962 373.512 450.187 373.855 450.333 374.234C450.479 374.612 450.543 375.017 450.52 375.422C450.532 375.83 450.462 376.235 450.313 376.615C450.165 376.994 449.941 377.339 449.655 377.63C449.37 377.92 449.028 378.15 448.651 378.305C448.275 378.46 447.87 378.537 447.463 378.532ZM440.772 386.505H443.699C443.975 386.509 444.247 386.57 444.498 386.684C444.749 386.798 444.974 386.963 445.159 387.169C445.604 387.598 445.995 388.081 446.322 388.606C444.48 388.817 442.628 388.927 440.774 388.937L440.772 386.505Z" fill="#2D4ABF"/>
<circle cx="471.102" cy="133.102" r="63.1019" fill="#FFE495"/>
<path d="M472.128 146.105C476.403 146.105 479.87 142.66 479.87 138.41C479.87 134.16 476.403 130.715 472.128 130.715C467.852 130.715 464.386 134.16 464.386 138.41C464.386 142.66 467.852 146.105 472.128 146.105Z" fill="#E7AD04"/>
<path fill-rule="evenodd" clip-rule="evenodd" d="M455.71 109.428L472.426 99.6007L488.362 109.324L488.463 127.839L480.552 132.86C480.552 132.86 475.898 128.486 471.665 128.485C467.432 128.484 463.631 132.857 463.631 132.857L456.169 127.861L455.71 109.428ZM457.652 126.174L471.35 118.055L471.208 102.228L457.143 110.541L457.652 126.175V126.174ZM458.418 128.173C459.183 128.173 463.44 131.051 463.44 131.051C463.44 131.051 467.285 126.797 471.821 126.936C476.356 127.074 480.742 131.164 480.742 131.164L486.735 127.655L472.297 119.961C472.297 119.961 457.653 128.173 458.418 128.173H458.418ZM455.043 167.657L438.123 158.182L438.627 139.602L455.126 129.841L463.038 134.557C463.038 134.557 461.61 140.542 463.726 144.187C465.842 147.831 471.496 149.124 471.496 149.124L471.293 158.045L455.043 167.657ZM468.663 157.612L454.739 149.881L441.021 157.916L455.296 165.867L468.662 157.612L468.663 157.612ZM470.022 155.953C469.639 155.295 470.018 150.192 470.018 150.192C470.018 150.192 464.445 148.801 462.298 144.827C460.151 140.854 461.465 135.242 461.465 135.242L455.411 131.837L455.926 148.112C455.926 148.112 470.404 156.612 470.022 155.953V155.953ZM505.347 138.959L505.552 158.261L489.112 167.118L472.929 157.947L472.511 149.042C472.511 149.042 478.174 147.848 480.291 144.204C482.409 140.561 481.392 134.478 481.392 134.478L489.057 130.137L505.347 138.959ZM489.785 132.257L490.011 148.109L503.871 155.899L503.661 139.636L489.785 132.257ZM488.079 132.334L483.061 135.217C483.061 135.217 483.952 141.278 481.563 145.112C479.175 148.948 474.311 150.054 474.311 150.054L474.372 156.136L487.877 147.97L488.079 132.334Z" fill="#E7AD04"/>
<circle cx="276.647" cy="229.647" r="41.6472" fill="#DFFF1B"/>
<path fill-rule="evenodd" clip-rule="evenodd" d="M276.5 249.434C265.491 249.434 256.566 240.509 256.566 229.5C256.566 218.491 265.491 209.566 276.5 209.566C287.509 209.566 296.434 218.491 296.434 229.5C296.434 240.509 287.509 249.434 276.5 249.434ZM282.044 214.7C280.307 214.069 278.472 213.748 276.623 213.75C274.696 213.748 272.785 214.097 270.983 214.781C272.691 216.614 274.421 218.428 276.171 220.221C276.36 220.415 276.673 220.419 276.867 220.23C276.867 220.23 280.017 217.219 282.045 214.7H282.044ZM282.044 244.634C280.017 242.114 276.864 239.056 276.864 239.056C276.818 239.011 276.764 238.975 276.704 238.952C276.645 238.928 276.581 238.916 276.517 238.917C276.453 238.918 276.389 238.931 276.33 238.957C276.271 238.983 276.218 239.02 276.174 239.066C276.174 239.066 273.659 241.676 270.984 244.552C272.785 245.236 274.696 245.586 276.623 245.583C278.472 245.586 280.307 245.264 282.044 244.634ZM267.126 216.834C267.126 216.834 260.722 221.188 260.722 229.517C260.722 237.846 267.126 242.674 267.126 242.674L276.5 232.883L285.944 242.306C285.944 242.306 292.684 237.043 292.684 229.493C292.684 221.942 285.857 216.775 285.857 216.775L279.54 223.252L282.835 226.658L286.062 223.783C286.062 223.783 287.769 226.43 287.793 229.481C287.817 232.532 286.156 235.61 286.156 235.61L276.511 226.028L267.284 235.549C267.284 235.549 265.393 232.692 265.401 229.396C265.41 226.1 267.126 223.252 267.126 223.252L270.263 226.325L273.954 223.222L267.126 216.834Z" fill="#171A06"/>
</svg>
