<svg width="70" height="41" viewBox="0 0 70 41" fill="none" xmlns="http://www.w3.org/2000/svg">
<path d="M24.2195 21.1619C22.4879 22.661 20.3039 23.5378 18.0156 23.6524C15.7273 23.7671 13.4665 23.1131 11.5935 21.7946C9.72045 20.4762 8.34308 18.5692 7.68092 16.3776C7.01875 14.1861 7.10991 11.8361 7.93986 9.70234C8.76982 7.56857 10.2908 5.77382 12.2603 4.60418C14.2299 3.43453 16.5346 2.95732 18.8071 3.24862C21.0797 3.53991 23.1892 4.58294 24.7995 6.21145C26.4097 7.83995 27.428 9.96018 27.6921 12.2342C28.6051 16.8723 28.5948 22.3996 26.5021 27.3529C24.2913 32.5804 19.8314 36.9879 12.2169 38.979C11.9717 39.0456 11.7157 39.063 11.4637 39.0303C11.2117 38.9975 10.9687 38.9151 10.7488 38.7879C10.5288 38.6608 10.3363 38.4913 10.1823 38.2894C10.0282 38.0874 9.91578 37.857 9.8514 37.6114C9.78702 37.3657 9.77199 37.1098 9.80718 36.8584C9.84237 36.6069 9.92708 36.3649 10.0564 36.1463C10.1857 35.9278 10.3571 35.737 10.5607 35.585C10.7643 35.433 10.9959 35.3228 11.2424 35.2608C17.7335 33.5619 21.224 29.9564 22.9577 25.8564C23.583 24.3538 24.0073 22.7754 24.2195 21.1619Z" fill="#DCD4C5"/>
<path d="M59.2195 21.1619C57.4879 22.661 55.3039 23.5378 53.0156 23.6524C50.7273 23.7671 48.4665 23.1131 46.5935 21.7946C44.7204 20.4762 43.3431 18.5692 42.6809 16.3776C42.0188 14.1861 42.1099 11.8361 42.9399 9.70234C43.7698 7.56857 45.2908 5.77382 47.2603 4.60418C49.2299 3.43453 51.5346 2.95732 53.8071 3.24862C56.0797 3.53991 58.1892 4.58294 59.7995 6.21145C61.4097 7.83995 62.428 9.96018 62.6921 12.2342C63.6051 16.8723 63.5948 22.3996 61.5021 27.3529C59.2913 32.5804 54.8314 36.9879 47.2169 38.979C46.9717 39.0456 46.7157 39.063 46.4637 39.0303C46.2117 38.9975 45.9687 38.9151 45.7488 38.7879C45.5288 38.6608 45.3363 38.4913 45.1823 38.2894C45.0282 38.0874 44.9158 37.857 44.8514 37.6114C44.787 37.3657 44.772 37.1098 44.8072 36.8584C44.8424 36.6069 44.9271 36.3649 45.0564 36.1463C45.1857 35.9278 45.3571 35.737 45.5607 35.585C45.7643 35.433 45.9959 35.3228 46.2424 35.2608C52.7335 33.5619 56.224 29.9564 57.9577 25.8564C58.583 24.3538 59.0073 22.7754 59.2195 21.1619Z" fill="#DCD4C5"/>
</svg>
