<svg width="66" height="66" viewBox="0 0 66 66" fill="none" xmlns="http://www.w3.org/2000/svg">
<rect width="66" height="66" rx="33" fill="#00BD82"/>
<path d="M33 18C24.7148 18 18 23.0332 18 29.25C18 33.6445 21.3691 37.4414 26.2676 39.293L22.998 48L32.4023 40.4766C32.6016 40.4824 32.7949 40.5 33 40.5C41.2852 40.5 48 35.4668 48 29.25C48 23.0332 41.2852 18 33 18ZM25.5 31.752C24.123 31.752 22.998 30.6328 22.998 29.25C22.998 27.8672 24.1172 26.748 25.5 26.748C26.877 26.748 28.002 27.8672 28.002 29.25C28.002 30.6328 26.877 31.752 25.5 31.752ZM33 31.752C31.623 31.752 30.498 30.6328 30.498 29.25C30.498 27.8672 31.6172 26.748 33 26.748C34.377 26.748 35.502 27.8672 35.502 29.25C35.502 30.6328 34.377 31.752 33 31.752ZM40.5 31.752C39.123 31.752 37.998 30.6328 37.998 29.25C37.998 27.8672 39.1172 26.748 40.5 26.748C41.877 26.748 43.002 27.8672 43.002 29.25C43.002 30.6328 41.877 31.752 40.5 31.752Z" fill="#FDF9F1"/>
</svg>
