<svg width="66" height="66" viewBox="0 0 66 66" fill="none" xmlns="http://www.w3.org/2000/svg">
<rect width="66" height="66" rx="33" fill="black" fill-opacity="0.08"/>
<g clip-path="url(#clip0_3_569)">
<path d="M45 38.875V26.125C45 24.9492 44.0547 24 42.8836 24H23.1164C21.9453 24 21 24.9492 21 26.125V38.875C21 40.0508 21.9453 41 23.1164 41H42.8836C44.0547 41 45 40.0508 45 38.875ZM43.1517 25.9692C43.6173 26.4367 43.3633 26.9183 43.1093 27.1592L37.381 32.4292L42.8836 38.1808C43.0529 38.3792 43.1658 38.6908 42.9683 38.9033C42.7848 39.13 42.3616 39.1158 42.1781 38.9742L36.0123 33.69L32.9929 36.4525L29.9877 33.69L23.8219 38.9742C23.6384 39.1158 23.2152 39.13 23.0317 38.9033C22.8342 38.6908 22.9471 38.3792 23.1164 38.1808L28.619 32.4292L22.8907 27.1592C22.6367 26.9183 22.3827 26.4367 22.8483 25.9692C23.3139 25.5017 23.7937 25.7283 24.1887 26.0683L32.9929 33.2083L41.8113 26.0683C42.2063 25.7283 42.6861 25.5017 43.1517 25.9692Z" fill="#1E1E1E"/>
</g>
<defs>
<clipPath id="clip0_3_569">
<rect width="28" height="21" fill="white" transform="translate(19 22)"/>
</clipPath>
</defs>
</svg>
