<svg width="66" height="66" viewBox="0 0 66 66" fill="none" xmlns="http://www.w3.org/2000/svg">
<rect width="66" height="66" rx="33" fill="black" fill-opacity="0.08"/>
<path d="M43 23C42.1875 22.1874 41.2228 21.5428 40.1612 21.103C39.0995 20.6632 37.9616 20.4369 36.8125 20.4369C35.6634 20.4369 34.5255 20.6632 33.4638 21.103C32.4022 21.5428 31.4375 22.1874 30.625 23L20.85 32.775C20.6172 33.0092 20.4865 33.326 20.4865 33.6563C20.4865 33.9865 20.6172 34.3033 20.85 34.5375L25.275 38.9625L20.85 43.375L22.625 45.15L27.0375 40.725L31.4625 45.15C31.6967 45.3828 32.0135 45.5135 32.3437 45.5135C32.674 45.5135 32.9908 45.3828 33.225 45.15L43 35.425C43.8201 34.6116 44.4711 33.6438 44.9153 32.5776C45.3595 31.5113 45.5882 30.3676 45.5882 29.2125C45.5882 28.0574 45.3595 26.9137 44.9153 25.8475C44.4711 24.7812 43.8201 23.8134 43 23ZM39.625 26.375C38.8506 25.6354 37.8209 25.2226 36.75 25.2226C35.6791 25.2226 34.6494 25.6354 33.875 26.375L32.55 25.05C33.6652 23.9386 35.1755 23.3146 36.75 23.3146C38.3245 23.3146 39.8347 23.9386 40.95 25.05L39.625 26.375Z" fill="#1E1E1E"/>
</svg>
