<svg width="116" height="24" viewBox="0 0 116 24" fill="none" xmlns="http://www.w3.org/2000/svg">
<path d="M11.6 0L14.2044 8.01284H22.6323L15.8139 12.9651L18.4183 20.9779L11.6 16.0257L4.78169 20.9779L7.38605 12.9651L0.567744 8.01284H8.99564L11.6 0Z" fill="#FFC828"/>
<path d="M34.7996 0L37.404 8.01284H45.8319L39.0136 12.9651L41.6179 20.9779L34.7996 16.0257L27.9813 20.9779L30.5857 12.9651L23.7674 8.01284H32.1953L34.7996 0Z" fill="#FFC828"/>
<path d="M57.9999 0L60.6043 8.01284H69.0322L62.2138 12.9651L64.8182 20.9779L57.9999 16.0257L51.1816 20.9779L53.786 12.9651L46.9676 8.01284H55.3955L57.9999 0Z" fill="#FFC828"/>
<path d="M81.2006 0L83.8049 8.01284H92.2328L85.4145 12.9651L88.0189 20.9779L81.2006 16.0257L74.3823 20.9779L76.9866 12.9651L70.1683 8.01284H78.5962L81.2006 0Z" fill="#FFC828"/>
<path d="M104.4 0L107.004 8.01284H115.432L108.614 12.9651L111.218 20.9779L104.4 16.0257L97.5815 20.9779L100.186 12.9651L93.3675 8.01284H101.795L104.4 0Z" fill="#FFC828"/>
</svg>
